<svg width="376" height="452" viewBox="0 0 376 452" fill="none" xmlns="http://www.w3.org/2000/svg">
<path d="M151.087 236.931L78.9771 197.443L0 245.516V346.813L73.8264 388.018V281.571L151.087 236.931Z" fill="#0F172A"/>
<path d="M376 106.447L302.173 63.525V175.123L190.575 240.365L254.1 276.42L302.173 248.95V300.456L276.42 314.191L192.292 264.402V331.36L218.045 348.529L181.991 367.415L180.274 245.516L121.899 278.137V415.488L188.858 451.543L376 341.662V106.447Z" fill="#2DD4BF"/>
<path d="M262.685 42.9223L185.424 0L0 104.73V199.16L61.8082 163.105L178.557 231.781V157.954L120.183 123.616L187.141 82.4109H192.292V207.744L262.685 168.256V42.9223Z" fill="#0F172A"/>
</svg>
